<svg width="211" height="40" viewBox="0 0 211 40" fill="none" xmlns="http://www.w3.org/2000/svg">
<path d="M5.30991 15.9555C0.520111 13.0907 4.24955 1.42875 12.3676 4.84293C25.2859 10.2759 13.2744 41.4404 5.33147 33.5801C0.515333 28.8141 12.5384 2.59367 26.4395 4.54735C38.442 6.23419 35.7844 26.5364 21.7168 22.9541C21.5735 22.9176 21.4298 23.0374 21.4567 23.1827C22.3472 27.9828 23.8876 34.6311 28.8402 35.4434C34.213 36.3245 38.5751 29.1179 33.5502 23.4006" stroke="#7A5AE1" stroke-width="3.67279"/>
<path d="M56.9284 29.3118L52.8199 22.0554H51.0592V29.3118H47.3242V10.6904H54.3139C55.7545 10.6904 56.9817 10.9483 57.9955 11.4641C59.0092 11.9621 59.7652 12.6468 60.2631 13.5183C60.7789 14.372 61.0368 15.3324 61.0368 16.3995C61.0368 17.6268 60.6811 18.7384 59.9697 19.7344C59.2582 20.7125 58.2 21.3884 56.7949 21.7619L61.2502 29.3118H56.9284ZM51.0592 19.2541H54.1805C55.1943 19.2541 55.9501 19.014 56.4482 18.5338C56.9461 18.0358 57.1951 17.351 57.1951 16.4796C57.1951 15.6259 56.9461 14.9678 56.4482 14.5054C55.9501 14.0252 55.1943 13.7851 54.1805 13.7851H51.0592V19.2541ZM63.4545 21.8686C63.4545 20.3746 63.7479 19.0496 64.3349 17.8935C64.9396 16.7375 65.7488 15.8482 66.7626 15.2257C67.794 14.6032 68.9412 14.292 70.204 14.292C71.3065 14.292 72.2675 14.5143 73.0855 14.9589C73.9215 15.4036 74.588 15.9638 75.0861 16.6397V14.5321H78.8478V29.3118H75.0861V27.1508C74.606 27.8445 73.9389 28.4225 73.0855 28.8849C72.2494 29.3295 71.2798 29.5519 70.1773 29.5519C68.9326 29.5519 67.794 29.2317 66.7626 28.5914C65.7488 27.9512 64.9396 27.053 64.3349 25.897C63.7479 24.7231 63.4545 23.3804 63.4545 21.8686ZM75.0861 21.9219C75.0861 21.0149 74.9085 20.2412 74.5526 19.6009C74.1967 18.9429 73.7165 18.4449 73.1122 18.107C72.5072 17.7512 71.8581 17.5734 71.1643 17.5734C70.4711 17.5734 69.8307 17.7424 69.2437 18.0803C68.6568 18.4182 68.1766 18.9162 67.8033 19.5743C67.4474 20.2146 67.2698 20.9793 67.2698 21.8686C67.2698 22.7579 67.4474 23.5404 67.8033 24.2162C68.1766 24.8743 68.6568 25.3812 69.2437 25.7369C69.8481 26.0926 70.4885 26.2704 71.1643 26.2704C71.8581 26.2704 72.5072 26.1015 73.1122 25.7636C73.7165 25.4079 74.1967 24.9099 74.5526 24.2696C74.9085 23.6115 75.0861 22.829 75.0861 21.9219ZM91.2458 29.3118L86.2307 23.0158V29.3118H82.4958V9.56994H86.2307V20.8015L91.193 14.5321H96.0484L89.5389 21.9486L96.1012 29.3118H91.2458ZM112.215 14.5321L103.064 36.3014H99.0888L102.29 28.9383L96.3676 14.5321H100.557L104.371 24.8566L108.239 14.5321H112.215ZM121.004 17.6001H118.416V29.3118H114.628V17.6001H112.947V14.5321H114.628V13.7851C114.628 11.971 115.144 10.6371 116.175 9.78337C117.207 8.92968 118.764 8.52948 120.844 8.58283V11.7309C119.937 11.7131 119.306 11.8643 118.95 12.1844C118.594 12.5046 118.416 13.0826 118.416 13.9185V14.5321H121.004V17.6001ZM122.464 21.8686C122.464 20.3746 122.758 19.0496 123.345 17.8935C123.95 16.7375 124.758 15.8482 125.773 15.2257C126.804 14.6032 127.951 14.292 129.214 14.292C130.316 14.292 131.277 14.5143 132.095 14.9589C132.931 15.4036 133.598 15.9638 134.096 16.6397V14.5321H137.857V29.3118H134.096V27.1508C133.616 27.8445 132.949 28.4225 132.095 28.8849C131.259 29.3295 130.29 29.5519 129.187 29.5519C127.942 29.5519 126.804 29.2317 125.773 28.5914C124.758 27.9512 123.95 27.053 123.345 25.897C122.758 24.7231 122.464 23.3804 122.464 21.8686ZM134.096 21.9219C134.096 21.0149 133.918 20.2412 133.562 19.6009C133.206 18.9429 132.726 18.4449 132.122 18.107C131.517 17.7512 130.868 17.5734 130.174 17.5734C129.481 17.5734 128.84 17.7424 128.253 18.0803C127.666 18.4182 127.186 18.9162 126.813 19.5743C126.457 20.2146 126.279 20.9793 126.279 21.8686C126.279 22.7579 126.457 23.5404 126.813 24.2162C127.186 24.8743 127.666 25.3812 128.253 25.7369C128.858 26.0926 129.498 26.2704 130.174 26.2704C130.868 26.2704 131.517 26.1015 132.122 25.7636C132.726 25.4079 133.206 24.9099 133.562 24.2696C133.918 23.6115 134.096 22.829 134.096 21.9219ZM140.545 21.9219C140.545 20.3924 140.856 19.0585 141.479 17.9202C142.101 16.7641 142.964 15.8749 144.066 15.2524C145.169 14.6121 146.432 14.292 147.855 14.292C149.686 14.292 151.198 14.7544 152.39 15.6793C153.6 16.5863 154.409 17.8668 154.818 19.5209H150.79C150.576 18.8806 150.211 18.3826 149.696 18.0269C149.198 17.6534 148.575 17.4667 147.828 17.4667C146.761 17.4667 145.916 17.858 145.294 18.6405C144.671 19.4053 144.36 20.4991 144.36 21.9219C144.36 23.327 144.671 24.4208 145.294 25.2033C145.916 25.9681 146.761 26.3505 147.828 26.3505C149.34 26.3505 150.327 25.6747 150.79 24.323H154.818C154.409 25.9237 153.6 27.1953 152.39 28.138C151.181 29.0806 149.669 29.5519 147.855 29.5519C146.432 29.5519 145.169 29.2407 144.066 28.6182C142.964 27.9779 142.101 27.0886 141.479 25.9503C140.856 24.7942 140.545 23.4515 140.545 21.9219ZM161.902 17.6001V24.7498C161.902 25.2478 162.018 25.6124 162.249 25.8436C162.498 26.057 162.907 26.1637 163.477 26.1637H165.21V29.3118H162.863C159.715 29.3118 158.141 27.7822 158.141 24.7231V17.6001H156.38V14.5321H158.141V10.8772H161.902V14.5321H165.21V17.6001H161.902ZM174.46 29.5519C173.037 29.5519 171.757 29.2407 170.618 28.6182C169.48 27.9779 168.582 27.0797 167.924 25.9237C167.283 24.7676 166.963 23.4337 166.963 21.9219C166.963 20.4101 167.292 19.0763 167.95 17.9202C168.626 16.7641 169.542 15.8749 170.698 15.2524C171.854 14.6121 173.144 14.292 174.567 14.292C175.989 14.292 177.278 14.6121 178.435 15.2524C179.591 15.8749 180.498 16.7641 181.156 17.9202C181.832 19.0763 182.17 20.4101 182.17 21.9219C182.17 23.4337 181.823 24.7676 181.13 25.9237C180.454 27.0797 179.529 27.9779 178.355 28.6182C177.199 29.2407 175.9 29.5519 174.46 29.5519ZM174.46 26.2972C175.136 26.2972 175.767 26.1371 176.354 25.817C176.959 25.479 177.439 24.981 177.795 24.323C178.15 23.6649 178.328 22.8646 178.328 21.9219C178.328 20.5169 177.954 19.4409 177.208 18.6939C176.478 17.9291 175.58 17.5467 174.513 17.5467C173.446 17.5467 172.548 17.9291 171.819 18.6939C171.108 19.4409 170.752 20.5169 170.752 21.9219C170.752 23.327 171.098 24.4119 171.792 25.1767C172.503 25.9237 173.393 26.2972 174.46 26.2972ZM188.644 16.8264C189.125 16.0439 189.747 15.4302 190.512 14.9856C191.294 14.541 192.184 14.3187 193.18 14.3187V18.2403H192.193C191.019 18.2403 190.129 18.5161 189.525 19.0674C188.938 19.6187 188.644 20.5792 188.644 21.9486V29.3118H184.909V14.5321H188.644V16.8264ZM209.835 14.5321L200.684 36.3014H196.709L199.91 28.9383L193.988 14.5321H198.177L201.992 24.8566L205.859 14.5321H209.835Z" fill="#171A1F"/>
</svg>
